<?xml version="1.0" encoding="UTF-8" standalone="no"?>
<!-- Created with Inkscape (http://www.inkscape.org/) -->

<svg
   xmlns:dc="http://purl.org/dc/elements/1.1/"
   xmlns:cc="http://creativecommons.org/ns#"
   xmlns:rdf="http://www.w3.org/1999/02/22-rdf-syntax-ns#"
   xmlns:svg="http://www.w3.org/2000/svg"
   xmlns="http://www.w3.org/2000/svg"
   xmlns:sodipodi="http://sodipodi.sourceforge.net/DTD/sodipodi-0.dtd"
   xmlns:inkscape="http://www.inkscape.org/namespaces/inkscape"
   width="210mm"
   height="297mm"
   viewBox="0 0 210 297"
   version="1.1"
   id="svg4512"
   inkscape:version="0.91 r13725"
   sodipodi:docname="Dressmaking_dummy.svg">
  <defs
     id="defs4506" />
  <sodipodi:namedview
     id="base"
     pagecolor="#ffffff"
     bordercolor="#666666"
     borderopacity="1.0"
     inkscape:pageopacity="0.0"
     inkscape:pageshadow="2"
     inkscape:zoom="0.76015624"
     inkscape:cx="73.712852"
     inkscape:cy="721.62288"
     inkscape:document-units="mm"
     inkscape:current-layer="layer1"
     showgrid="false"
     inkscape:window-width="1366"
     inkscape:window-height="716"
     inkscape:window-x="-8"
     inkscape:window-y="-8"
     inkscape:window-maximized="1" />
  <metadata
     id="metadata4509">
    <rdf:RDF>
      <cc:Work
         rdf:about="">
        <dc:format>image/svg+xml</dc:format>
        <dc:type
           rdf:resource="http://purl.org/dc/dcmitype/StillImage" />
        <dc:title />
      </cc:Work>
    </rdf:RDF>
  </metadata>
  <g
     inkscape:label="Layer 1"
     inkscape:groupmode="layer"
     id="layer1">
    <path
       style="fill:#000000;stroke-width:0.08466667"
       d="m 28.440106,137.05922 c -2.644304,-0.15448 -5.005881,-0.6059 -7.498108,-1.4333 -1.535385,-0.50973 -2.035021,-0.72748 -2.303363,-1.00382 -0.365866,-0.37678 -0.36786,-0.82739 -0.0057,-1.2781 0.312618,-0.38901 0.971415,-0.70726 1.466093,-0.70823 l 0.204099,-4e-4 0.06483,-0.19072 c 0.08681,-0.25538 0.316328,-0.6524 0.504479,-0.87263 0.281458,-0.32945 0.793979,-0.65402 1.302323,-0.82475 l 0.219538,-0.0737 0.135083,-0.29161 c 0.17566,-0.37919 0.394296,-0.70398 0.656367,-0.97504 0.371439,-0.38418 0.776008,-0.61052 1.448612,-0.81044 0.309746,-0.0921 0.316148,-0.0961 0.393252,-0.24806 0.342166,-0.67434 1.011079,-1.21504 1.79939,-1.45449 0.228881,-0.0695 0.236731,-0.0756 0.27628,-0.21326 0.02238,-0.0779 0.111323,-0.2861 0.197633,-0.46258 0.2898,-0.59254 0.866547,-1.07196 1.429464,-1.18823 l 0.199432,-0.0412 0,-1.22604 0,-1.22604 -0.143543,-3.4e-4 c -0.240406,-4e-4 -2.025543,-0.0988 -2.761128,-0.15215 -3.992391,-0.28964 -7.979154,-0.93037 -11.686242,-1.87815 -1.501939,-0.3839 -1.842294,-0.51423 -2.029799,-0.77713 -0.07895,-0.11069 -0.08098,-0.12986 -0.07479,-0.70485 0.01492,-1.38414 1.10343,-47.168709 1.12178,-47.184048 0.01113,-0.0093 0.02314,-0.146428 0.02669,-0.304759 0.0065,-0.285834 0.170646,-1.987493 0.332352,-3.444295 0.395614,-3.564078 0.920154,-6.388702 1.635941,-8.809535 1.304905,-4.41324 3.395287,-8.032629 6.395887,-11.074146 l 0.606622,-0.6149 -0.02306,-0.280146 c -0.09699,-1.177788 -0.29193,-2.463274 -0.493054,-3.251254 -0.07127,-0.279256 -0.937375,-3.395527 -1.924667,-6.925043 -0.987288,-3.529516 -1.891793,-6.766875 -2.010009,-7.194131 -0.118216,-0.427256 -0.703268,-2.524699 -1.300113,-4.660986 -0.596845,-2.136287 -1.117592,-4.020946 -1.157212,-4.188134 -0.05711,-0.240976 -0.0725,-0.415974 -0.07424,-0.844379 -0.002,-0.488877 0.0052,-0.558767 0.07562,-0.73298 0.191398,-0.47369 0.666225,-0.776762 1.367092,-0.872586 0.152703,-0.02086 1.789924,-0.34906 3.638278,-0.729291 1.84835,-0.380231 3.771007,-0.774945 4.272569,-0.87714 1.26609,-0.257971 1.623766,-0.381033 1.931262,-0.664473 0.183355,-0.169012 0.288359,-0.367436 0.361545,-0.683192 0.133986,-0.578073 0.663317,-3.621167 0.696196,-4.002368 0.229523,-2.6612128 0.710621,-3.7923476 1.745432,-4.1037796 0.438578,-0.1319923 1.682194,-0.1520947 2.164512,-0.034989 0.480356,0.1166312 0.891516,0.4303474 1.130485,0.8625669 0.336246,0.6081581 0.548121,1.613958 0.636777,3.022886 0.03263,0.518811 0.08736,0.879231 0.37315,2.458039 0.184189,1.017546 0.365419,1.93168 0.402734,2.031407 0.139103,0.37179 0.373673,0.58658 0.842476,0.771435 0.300929,0.118662 0.330402,0.125683 1.723783,0.410622 0.677355,0.138517 2.599449,0.532447 4.271324,0.875402 1.671876,0.342956 3.187773,0.647684 3.368664,0.677168 0.716932,0.116864 1.125881,0.403308 1.315452,0.921394 0.107916,0.294922 0.101386,0.936781 -0.01488,1.463595 -0.04715,0.21363 -0.620628,2.303475 -1.274395,4.6441 -0.653763,2.340626 -1.23915,4.43807 -1.300851,4.660986 -0.268917,0.971527 -3.451919,12.36236 -3.633631,13.003477 -0.326249,1.151054 -0.486982,2.036985 -0.639298,3.523614 l -0.07033,0.686494 0.511061,0.52519 c 1.546586,1.589355 2.826047,3.251337 3.869025,5.025751 0.379844,0.646228 1.150518,2.175589 1.438192,2.854009 1.406609,3.317202 2.232015,6.845657 2.812757,12.023991 0.06562,0.585157 0.180041,1.677509 0.254264,2.427447 l 0.134943,1.363526 -0.167316,23.27553 c -0.09202,12.801535 -0.171631,23.640305 -0.176909,24.086135 -0.0095,0.80693 -0.01001,0.81139 -0.100795,0.98365 -0.218071,0.41375 -0.592833,0.61381 -1.597402,0.85275 -4.260438,1.0134 -9.277277,1.59035 -13.839415,1.59156 l -0.869714,2.3e-4 0,1.19663 0,1.19662 0.19421,0.039 c 0.106811,0.0215 0.308198,0.0943 0.447521,0.16195 0.459883,0.22323 0.978476,0.81552 1.332378,1.52171 0.08404,0.1677 0.148586,0.25488 0.198276,0.26781 0.04052,0.0105 0.210462,0.0876 0.37765,0.1712 0.516454,0.25829 0.974179,0.78989 1.235404,1.4348 0.07585,0.18726 0.09078,0.20219 0.294212,0.29443 0.826392,0.37471 1.522085,1.16309 1.863261,2.11149 l 0.0738,0.20515 0.293178,0.1317 c 0.743544,0.33402 1.325342,0.86873 1.701723,1.56401 0.04488,0.0829 0.0799,0.10628 0.159165,0.10628 0.321706,0 0.805863,0.35247 1.007605,0.73356 0.30604,0.57808 0.280625,1.09278 -0.07134,1.44475 -0.20522,0.20522 -0.268166,0.23157 -1.300113,0.54442 -2.304224,0.69856 -4.53679,1.12638 -6.861216,1.3148 -0.753365,0.0611 -2.827142,0.0896 -3.529517,0.0486 z m 5.663885,-15.05067 c 0.12189,-0.0201 0.125141,-0.0246 0.142251,-0.19382 0.0096,-0.0953 0.02441,-1.17013 0.03287,-2.3886 l 0.01536,-2.21539 -0.83311,-0.0221 c -0.458212,-0.0122 -1.186489,-0.0222 -1.618388,-0.0222 l -0.785275,0 -6.8e-5,1.56211 c -3.1e-5,0.85915 -0.01013,1.96358 -0.02246,2.45428 l -0.02238,0.89219 1.48323,-0.0229 c 0.815772,-0.0126 1.539358,-0.0321 1.607964,-0.0435 z m -5.174143,-2.40584 0,-2.42723 -0.156704,-0.0215 c -0.21929,-0.03 -1.254628,-0.0269 -1.272947,0.004 -0.02226,0.0374 -0.105327,4.76692 -0.08408,4.78817 0.01735,0.0174 0.859697,0.0684 1.30263,0.0789 l 0.211097,0.005 z m 7.700761,2.25716 c 1.319258,-0.10135 2.830624,-0.26641 4.196575,-0.4583 l 0.160434,-0.0225 0,-1.80011 c 0,-1.68495 -0.0036,-1.80128 -0.05911,-1.8183 -0.181852,-0.056 -2.078016,-0.27804 -3.048215,-0.35702 -0.611461,-0.0498 -1.89012,-0.12843 -2.519154,-0.15497 l -0.543302,-0.0229 -0.02242,1.17483 c -0.01233,0.64616 -0.02242,1.71579 -0.02242,2.37695 l 0,1.20213 0.481297,-0.0255 c 0.264716,-0.014 0.884068,-0.0564 1.376343,-0.0943 z m -9.748224,-0.10858 c 0.01492,-0.14967 0.09109,-3.96284 0.08914,-4.46316 l -7.98e-4,-0.16526 -2.237612,0.0197 c -2.011509,0.0177 -3.090197,0.0502 -3.943261,0.11884 l -0.287091,0.0231 -0.0087,1.957 c -0.0048,1.07635 0.0036,1.96942 0.01891,1.98461 0.105981,0.10598 5.092889,0.66686 6.210488,0.69849 l 0.141114,0.004 0.01767,-0.17732 z m 15.371805,-0.58051 c 0.928416,-0.15924 1.956805,-0.36422 2.819522,-0.56198 0.399,-0.0915 0.729578,-0.1663 0.734612,-0.1663 0.005,0 0.0092,-0.34117 0.0092,-0.75817 l 0,-0.75816 -0.492742,-0.15593 c -0.717048,-0.2269 -1.600848,-0.46366 -2.312358,-0.61945 -0.823895,-0.18039 -1.47883,-0.30325 -1.500576,-0.28151 -0.0097,0.01 -0.01755,0.78257 -0.01755,1.71758 0,1.33756 0.009,1.69999 0.04222,1.6999 0.02322,0 0.346199,-0.0523 0.717725,-0.11598 z m -22.274787,-1.93166 0,-1.91267 -0.278646,0.0234 c -0.882129,0.074 -2.208886,0.2777 -3.100701,0.476 -0.536209,0.11922 -1.502059,0.38545 -1.703003,0.46941 l -0.111502,0.0466 -0.02226,0.60281 c -0.01225,0.33154 -0.02533,0.72306 -0.02908,0.87004 l -0.0068,0.26722 0.388413,0.0942 c 1.3877,0.33655 4.443682,0.95719 4.787643,0.97233 l 0.07599,0.003 z m 26.834575,0.74947 c 0.132594,-0.17515 0.124296,-0.34247 -0.02545,-0.51343 -0.103252,-0.11787 -0.377466,-0.31612 -0.437248,-0.31612 -0.01496,0 -0.02717,0.25927 -0.02717,0.57616 l 0,0.57616 0.205803,-0.10969 c 0.113194,-0.0603 0.24102,-0.15622 0.284067,-0.21308 z m -32.5973,-0.29759 c 0.01021,-0.13468 0.02569,-0.44764 0.03435,-0.69547 l 0.01572,-0.4506 -0.09056,0.0217 c -0.04981,0.0119 -0.290231,0.11967 -0.53427,0.23943 -0.455763,0.22366 -0.824984,0.46716 -0.8886,0.58603 -0.03243,0.0606 -0.01472,0.0774 0.178561,0.16969 0.178928,0.0854 1.095456,0.36295 1.226864,0.37153 0.02497,0.002 0.04613,-0.0868 0.05794,-0.2423 z m 32.715469,-1.55366 c 0,-0.41333 0.0233,-3.78196 0.05165,-7.48586 0.02836,-3.7039 0.04732,-6.73823 0.04214,-6.74294 -0.0052,-0.005 -0.142096,0.11515 -0.304245,0.26639 l -0.29481,0.27498 -0.03343,5.25206 c -0.01839,2.88863 -0.0422,6.06586 -0.05293,7.06052 l -0.01951,1.80848 0.196632,0.094 c 0.108144,0.0517 0.234226,0.12287 0.280182,0.15818 0.04595,0.0353 0.09495,0.0645 0.108881,0.065 0.01392,4e-4 0.02537,-0.33743 0.02541,-0.75075 z M 13.37644,118.3583 c 0.111403,-0.0555 0.346941,-0.15901 0.523416,-0.2301 0.176478,-0.0711 0.335902,-0.14241 0.354277,-0.15849 0.04783,-0.0419 0.51864,-12.82379 0.473678,-12.85983 -0.01883,-0.0151 -0.155826,-0.0757 -0.304436,-0.13456 -0.36011,-0.14277 -0.86543,-0.41368 -1.112075,-0.59622 -0.110078,-0.0815 -0.206194,-0.14207 -0.21359,-0.13467 -0.01261,0.0127 -0.344276,13.65073 -0.3456,14.21168 l -7.98e-4,0.25966 0.211196,-0.12831 c 0.116158,-0.0706 0.302342,-0.17369 0.413745,-0.22916 z m 32.442088,-0.0521 c 0.01288,-0.93371 0.09211,-13.41977 0.08521,-13.42667 -0.0054,-0.005 -0.175234,0.0713 -0.377363,0.17046 -0.202133,0.0992 -0.492902,0.22485 -0.646159,0.27927 l -0.278646,0.099 -2.04e-4,0.18635 c -9.9e-5,0.10249 -0.03052,2.92134 -0.06762,6.26413 -0.0371,3.34278 -0.056,6.08766 -0.04203,6.09974 0.01396,0.0121 0.169797,0.0625 0.346271,0.11205 0.176478,0.0495 0.457657,0.13436 0.624845,0.18845 0.372979,0.12069 0.354417,0.11927 0.355685,0.0273 z m -1.858662,-0.62485 c 6.8e-5,-0.43183 0.100265,-9.45953 0.118603,-10.6867 l 0.02102,-1.40695 -0.449803,0.11444 c -0.432741,0.11009 -1.628992,0.3567 -1.961245,0.40431 l -0.160429,0.023 0,5.60285 c 0,3.08158 0.0092,5.60286 0.02038,5.60286 0.06208,0 1.891625,0.38144 2.090559,0.43586 0.331862,0.0908 0.320864,0.0939 0.320891,-0.0897 z m -28.789146,-0.01 c 0.846661,-0.26079 2.099642,-0.5269 3.170584,-0.6734 0.278646,-0.0381 0.55477,-0.0771 0.613611,-0.0867 0.10648,-0.0173 0.10707,-0.0185 0.125568,-0.26124 0.02912,-0.38198 0.268673,-10.46066 0.249102,-10.48023 -0.0096,-0.01 -0.290502,-0.0618 -0.624227,-0.11605 -1.173639,-0.19071 -2.33954,-0.44288 -3.093958,-0.6692 -0.223703,-0.0671 -0.335385,-0.0871 -0.342669,-0.0612 -0.0092,0.0327 -0.461838,12.28968 -0.458224,12.40852 0.0016,0.0539 -0.02657,0.0586 0.360213,-0.0605 z m 25.828247,-1.78026 c 0.02457,-1.47733 0.0312,-9.66817 0.0078,-9.66817 -0.03981,0 -1.623051,0.20785 -1.629063,0.21386 -0.004,0.004 0.0067,1.76975 0.02342,3.92426 0.01671,2.1545 0.03096,4.53634 0.03159,5.29297 l 0.0012,1.37571 0.07599,0.0161 c 0.108191,0.0229 1.274451,0.17788 1.379295,0.18333 l 0.08739,0.005 z m -2.072255,0.1351 c -0.0012,-1.872 -0.06699,-9.5106 -0.08206,-9.52568 -0.0084,-0.008 -0.285779,0.009 -0.616452,0.0396 -0.713916,0.0651 -1.735088,0.1389 -2.644627,0.19123 -0.36224,0.0209 -0.661905,0.0411 -0.665922,0.0451 -0.004,0.004 -0.0225,1.53391 -0.04103,3.39991 -0.01855,1.86601 -0.0432,4.101 -0.05478,4.96665 l -0.02106,1.57391 0.5856,0.0233 c 1.028584,0.0408 3.354537,0.20192 3.456497,0.23939 0.01859,0.007 0.04517,0.0136 0.0591,0.0151 0.01392,0.002 0.02505,-0.4343 0.02473,-0.96837 z m -18.93466,0.65862 c 0.0093,-0.0789 0.03307,-1.28346 0.05293,-2.67669 0.01987,-1.39323 0.06037,-3.70068 0.08997,-5.12767 0.0296,-1.42698 0.04852,-2.59914 0.04202,-2.6048 -0.0065,-0.006 -0.08401,-0.0208 -0.172242,-0.0336 l -0.16043,-0.0233 -2.39e-4,0.28071 c -1.32e-4,0.1544 -0.05322,2.37056 -0.117977,4.92482 -0.06476,2.55425 -0.117845,4.81508 -0.117977,5.02407 l -2.35e-4,0.37997 0.183695,0 0.183695,0 z m 1.743665,0.008 c 0.343662,-0.0179 1.320192,-0.0428 2.17006,-0.0553 0.849872,-0.0125 1.545824,-0.0241 1.546562,-0.0257 0.0054,-0.0118 0.165927,-9.11292 0.166633,-9.44723 l 7.98e-4,-0.4263 -0.413748,-0.0233 c -1.467752,-0.0825 -3.876146,-0.28735 -4.402546,-0.37454 l -0.10464,-0.0173 -0.02294,1.05605 c -0.04969,2.28842 -0.12122,6.1387 -0.143484,7.72299 l -0.02346,1.66821 0.300894,-0.0225 c 0.165492,-0.0124 0.582077,-0.0371 0.925739,-0.0551 z m 12.565441,-0.37954 c 3.98e-4,-0.20899 0.0223,-2.43163 0.04826,-4.93922 0.02597,-2.50758 0.04143,-4.56504 0.03435,-4.57212 -0.0071,-0.007 -0.375875,-0.002 -0.819546,0.0118 l -0.806669,0.0247 -0.02242,3.41595 c -0.01233,1.87877 -0.02242,4.08792 -0.02242,4.90923 l -1.6e-5,1.49329 0.312419,0.0111 c 0.171831,0.006 0.529004,0.0143 0.79372,0.0181 l 0.481297,0.007 0.0012,-0.37997 z m -2.083378,-4.54066 c 0.01261,-2.68778 0.01129,-4.89601 -0.0028,-4.90718 -0.01416,-0.0112 -0.265138,-0.0146 -0.557714,-0.008 l -0.531961,0.0128 -0.0024,1.3733 c -0.0012,0.75533 -0.01436,2.9464 -0.02916,4.86906 -0.0148,1.92266 -0.0205,3.50714 -0.01265,3.52107 0.0079,0.0139 0.261628,0.0253 0.563974,0.0253 l 0.549716,0 0.0229,-4.88686 z m -5.212767,4.40556 c 2.04e-4,-0.24614 0.03802,-2.27899 0.08408,-4.51744 0.04605,-2.23846 0.08388,-4.24638 0.08408,-4.46206 l 3.59e-4,-0.39214 -0.509609,-0.0243 c -0.280285,-0.0133 -0.51347,-0.0193 -0.518193,-0.0132 -0.0047,0.006 -0.04139,2.07054 -0.08148,4.58764 -0.0401,2.5171 -0.08097,4.73234 -0.09083,4.92275 l -0.01795,0.34619 0.524584,0 0.52458,0 3.59e-4,-0.44752 z m 1.924835,-4.4499 0,-4.89741 -0.617429,0 -0.617429,0 -0.0932,4.75387 c -0.05126,2.61463 -0.09259,4.81847 -0.09185,4.89742 l 0.0012,0.14354 0.70928,0 0.709281,0 0,-4.89742 z m 3.081993,-5.39227 c 0.194873,-0.0184 0.227983,-0.031 0.227983,-0.0864 0,-0.0618 -0.02146,-0.0639 -0.447521,-0.0442 -0.629851,0.0291 -0.726107,0.0486 -0.644543,0.13011 0.02852,0.0285 0.564125,0.0288 0.864081,4e-4 z m -3.081993,-0.0455 c 0,-0.02 -0.122113,-0.0338 -0.298787,-0.0338 -0.164335,0 -0.437915,-0.01 -0.607955,-0.0219 -0.273639,-0.0194 -0.309167,-0.0156 -0.309167,0.0338 0,0.0497 0.06554,0.0557 0.607954,0.0557 0.382785,0 0.607955,-0.0125 0.607955,-0.0338 z m 5.446263,-0.0231 c 0.01392,-0.008 0.02533,-0.0839 0.02533,-0.16857 0,-0.14122 -0.0061,-0.15236 -0.07312,-0.13482 -0.04022,0.0105 -0.393591,0.0521 -0.785275,0.0925 -0.391688,0.0403 -0.731157,0.0786 -0.754374,0.0851 -0.02322,0.006 -0.04222,0.0516 -0.04222,0.10019 l 0,0.0884 0.802165,-0.0241 c 0.441186,-0.0132 0.813558,-0.0306 0.827493,-0.0387 z m -7.168801,-0.0244 c 0,-0.0493 -0.09719,-0.0677 -0.557292,-0.10537 -0.130036,-0.0106 -0.293422,-0.0276 -0.363085,-0.0375 -0.117969,-0.0169 -0.126658,-0.0123 -0.126658,0.0679 0,0.0843 0.0055,0.0863 0.278646,0.0974 0.703859,0.0287 0.768389,0.0268 0.768389,-0.0224 z m 8.882894,-0.0557 c 0.599426,-0.0355 2.084048,-0.1498 2.516258,-0.19369 l 0.236428,-0.024 0.0095,-0.43323 c 0.0088,-0.40224 0.0052,-0.43191 -0.05066,-0.41465 -0.157143,0.0486 -1.443354,0.33306 -1.985323,0.43908 -0.519367,0.10159 -1.217968,0.22356 -1.76476,0.30811 l -0.143544,0.0222 0,0.18533 0,0.18533 0.295532,-0.0197 c 0.162544,-0.0108 0.561517,-0.0355 0.886601,-0.0547 z m -10.436558,-0.0468 c 0,-0.0453 -0.01256,-0.0902 -0.02792,-0.0997 -0.01536,-0.009 -0.247143,-0.049 -0.515074,-0.0879 -0.983973,-0.14266 -1.823425,-0.30921 -2.750086,-0.54561 -0.484732,-0.12366 -1.425996,-0.39325 -1.57899,-0.45224 -0.05443,-0.021 -0.05911,0.0119 -0.05911,0.41614 l 0,0.43893 0.109771,0.0203 c 0.443842,0.0822 3.836844,0.36536 4.644095,0.38761 0.166817,0.005 0.17732,0 0.17732,-0.0776 z m 14.624504,-0.34276 c 0.38071,-0.0482 0.703688,-0.0947 0.717722,-0.10341 0.01404,-0.009 0.02553,-0.31287 0.02553,-0.67601 0,-0.51514 -0.0093,-0.65633 -0.04222,-0.64248 -0.02322,0.01 -0.179008,0.0777 -0.346195,0.15089 -0.350811,0.15365 -0.914338,0.361 -1.123029,0.41322 l -0.143543,0.0359 0,0.47308 0,0.47309 0.10977,-0.0183 c 0.06037,-0.0101 0.42126,-0.0578 0.801974,-0.10597 z m -20.062319,-0.54609 0,-0.49845 -0.150928,-0.0543 c -0.08301,-0.0298 -0.159006,-0.0462 -0.168875,-0.0363 -0.0099,0.01 -0.01795,0.24994 -0.01795,0.53348 0,0.57351 -0.01652,0.53648 0.244873,0.54942 l 0.09288,0.005 z m 8.714017,0.11068 0,-0.38778 -0.08927,-0.0224 c -0.07425,-0.0186 -0.415516,0.0382 -1.050645,0.17492 -0.07151,0.0154 -0.07599,0.0332 -0.07599,0.30133 l 0,0.28497 0.244869,0.0117 c 0.13468,0.006 0.408259,0.0147 0.607955,0.0183 l 0.363085,0.007 z m 2.982199,0.33174 0.330841,-0.0219 -0.01,-0.18448 -0.01,-0.1845 -0.42219,-0.14373 c -0.232207,-0.0791 -0.464531,-0.16072 -0.516278,-0.18147 -0.118233,-0.0474 -0.118061,-0.0479 -0.132985,0.39215 l -0.01173,0.3462 0.220735,-3.4e-4 c 0.121403,0 0.369608,-0.01 0.551571,-0.0221 z m -4.704737,-0.2349 0,-0.22337 -0.109771,0.0177 c -0.06037,0.01 -0.295955,0.0451 -0.523515,0.0787 l -0.413749,0.061 0,0.094 c 0,0.0661 0.01755,0.0948 0.05911,0.0965 0.04601,0.002 0.51462,0.0487 0.945709,0.0943 0.02996,0.003 0.04222,-0.0603 0.04222,-0.21891 z m -7.833269,-0.43252 0.0066,-0.57146 -0.406033,-0.20913 c -1.113423,-0.57346 -1.506938,-1.07242 -1.255478,-1.59188 0.151892,-0.31376 0.675124,-0.64498 1.407467,-0.89096 l 0.346195,-0.11628 0,-0.31309 0,-0.31309 -0.126658,0.0169 c -1.156665,0.15455 -1.884759,0.28099 -2.642911,0.45896 -0.459939,0.10798 -1.253592,0.33341 -1.288146,0.3659 -0.01185,0.0112 -0.03858,0.51425 -0.05939,1.11798 -0.02078,0.60373 -0.04691,1.25056 -0.05802,1.4374 l -0.02019,0.3397 0.501778,0.14159 c 0.603926,0.17042 1.031345,0.27553 1.614324,0.39701 0.660257,0.13758 1.9241,0.34683 1.950561,0.32295 0.01284,-0.0116 0.02629,-0.27823 0.02992,-0.59253 z m 13.793576,0.55886 c 0.08911,-0.0191 0.07669,-0.0264 -0.111259,-0.0652 -0.116357,-0.024 -0.233687,-0.0522 -0.26073,-0.0626 -0.03531,-0.0136 -0.04917,0.006 -0.04917,0.0692 0,0.0831 0.0091,0.0878 0.160434,0.0841 0.08824,-0.002 0.205568,-0.0137 0.26073,-0.0255 z m 9.137236,-0.11064 c 0.287933,-0.0547 0.806067,-0.16858 1.151408,-0.25299 l 0.627889,-0.15348 0.02222,-1.08615 c 0.01221,-0.59739 0.02226,-1.27936 0.0223,-1.51549 l 6.7e-5,-0.42934 -0.126657,-0.0332 c -0.576492,-0.15121 -0.943167,-0.23551 -1.629658,-0.37464 -0.436546,-0.0885 -0.805117,-0.15418 -0.819051,-0.14601 -0.01392,0.008 -0.02533,0.26944 -0.02533,0.5806 l 0,0.56575 0.186016,0.16059 c 0.224225,0.19359 0.294631,0.3196 0.294631,0.52736 0,0.20218 -0.09238,0.37862 -0.309044,0.59023 l -0.171603,0.16761 0,0.77119 0,0.77118 0.126657,-0.0218 c 0.06966,-0.012 0.36224,-0.0666 0.650176,-0.12135 z m -16.651207,0.005 c 0,-0.0186 -0.0219,-0.0338 -0.04867,-0.0338 -0.02677,0 -0.05806,0.0152 -0.06954,0.0338 -0.01149,0.0186 0.01041,0.0338 0.04867,0.0338 0.03826,0 0.06954,-0.0152 0.06954,-0.0338 z m 9.993445,-0.23719 c 0.377247,-0.0397 1.935642,-0.34968 2.67228,-0.53149 l 0.523519,-0.1292 -3.43e-4,-0.7645 c -2.03e-4,-0.42047 -0.0089,-0.77308 -0.01943,-0.78358 -0.01049,-0.0105 -0.215529,0.0658 -0.455627,0.16943 -0.843872,0.3644 -2.191154,0.77544 -3.091581,0.9432 l -0.324546,0.0605 -0.02358,0.50659 c -0.01867,0.40048 -0.01432,0.51244 0.02058,0.53459 0.05875,0.0373 0.311688,0.0353 0.698737,-0.006 z m -1.239083,-0.48054 c 0.0057,-0.24613 0.0086,-0.4518 0.0064,-0.45704 -0.002,-0.005 -0.176929,0.013 -0.388417,0.0405 -0.211488,0.0275 -0.58591,0.0683 -0.832044,0.0906 l -0.447525,0.0405 0,0.2153 c 0,0.19231 0.0081,0.21834 0.07599,0.2438 0.206629,0.0775 1.198748,0.26213 1.450459,0.26994 l 0.124782,0.004 z m -9.510766,0.24507 c 0.239547,-0.0185 0.505611,-0.0424 0.591251,-0.0532 l 0.155711,-0.0196 0.01855,-0.36056 c 0.01021,-0.19831 0.01272,-0.36651 0.0056,-0.37376 -0.0071,-0.007 -0.244156,-0.0493 -0.526755,-0.0933 -1.781514,-0.27779 -3.297328,-0.84916 -4.202941,-1.58426 l -0.138458,-0.11239 -0.02198,0.4087 c -0.01209,0.22479 -0.02198,0.67267 -0.02198,0.9953 l 0,0.5866 0.09272,0.0353 c 0.184377,0.0701 1.08368,0.33567 1.579155,0.46633 l 0.506629,0.13361 0.763481,0.002 c 0.419916,0.001 0.959476,-0.0127 1.19902,-0.0312 z m 1.769662,-0.20278 c 0.629469,-0.10059 0.574182,-0.0729 0.574182,-0.2878 0,-0.17894 -0.0032,-0.18519 -0.09288,-0.18713 -0.05109,-0.001 -0.286668,-0.0203 -0.523515,-0.0427 l -0.430635,-0.0407 0,0.20735 c 0,0.11404 -0.0095,0.25485 -0.0211,0.3129 -0.02549,0.12738 -0.0521,0.12533 0.493963,0.038 z m 18.380487,-0.0943 c 0.20992,-0.089 0.491865,-0.23305 0.626545,-0.32018 l 0.244869,-0.15843 0,-0.82716 0,-0.82717 -0.59951,-0.1892 c -0.329731,-0.10407 -0.61851,-0.19523 -0.641731,-0.2026 -0.03279,-0.0104 -0.04224,0.13521 -0.0423,0.65261 -3.6e-5,0.3663 -0.01005,0.97377 -0.02226,1.34995 -0.01592,0.49135 -0.01161,0.68395 0.01528,0.68395 0.02058,0 0.209185,-0.0728 0.419105,-0.16177 z m -12.807567,-0.0747 0,-0.1351 -0.181628,0 c -0.121524,0 -0.195767,0.017 -0.224353,0.0515 -0.05413,0.0652 -0.04779,0.0707 0.172589,0.14892 0.242679,0.0861 0.233392,0.0887 0.233392,-0.0653 z m -4.21227,-0.077 c 0.144034,-0.0374 0.156899,-0.0481 0.118212,-0.0991 -0.02581,-0.034 -0.115396,-0.0665 -0.220731,-0.08 l -0.17732,-0.0228 0,0.12256 c 0,0.14003 0.02194,0.14624 0.279839,0.0793 z m -13.19754,-1.19461 c 0.02613,-0.6474 0.04794,-1.21016 0.04843,-1.25057 l 7.98e-4,-0.0735 -0.19421,0.077 c -0.903272,0.35823 -1.168785,0.50936 -1.378949,0.7849 -0.333577,0.43735 -0.05559,0.92096 0.776371,1.35065 0.316288,0.16335 0.670825,0.3172 0.689247,0.29908 0.0059,-0.006 0.03207,-0.54019 0.05822,-1.18759 z m 25.017853,0.92997 c 0.208894,-0.0764 0.558843,-0.22333 0.777663,-0.3264 l 0.397855,-0.1874 -0.0095,-0.40745 -0.0095,-0.40747 -0.280106,-0.0954 c -0.15406,-0.0525 -0.471329,-0.13941 -0.705044,-0.19316 -0.361498,-0.0831 -0.431904,-0.0908 -0.471592,-0.0511 -0.02565,0.0256 -0.07696,0.0563 -0.114008,0.068 -0.06496,0.0206 -0.06735,0.0519 -0.06735,0.88036 0,0.74226 0.0069,0.859 0.05083,0.859 0.02796,0 0.22174,-0.0626 0.430635,-0.139 z m -19.598156,-0.6125 c 6.4e-5,-0.28329 0.01013,-0.77901 0.02234,-1.10159 l 0.02226,-0.58652 -0.149008,0.0243 c -0.08196,0.0134 -0.158511,0.0341 -0.170132,0.0461 -0.01161,0.012 -0.03131,0.47369 -0.04378,1.02594 l -0.02266,1.00408 0.111331,0.0486 c 0.234254,0.10235 0.229534,0.11182 0.22965,-0.46092 z m 11.990113,-0.91662 0,-1.22904 -0.109767,-0.0191 c -0.06038,-0.0105 -0.303558,-0.0294 -0.540405,-0.0421 l -0.430635,-0.0231 0,0.94326 0,0.94325 0.20751,0.0953 c 0.225127,0.10333 0.477999,0.31527 0.555892,0.4659 0.04115,0.0796 0.07029,0.0946 0.183172,0.0946 l 0.134233,0 z m 1.565404,1.09156 c 0.312965,-0.0359 0.582747,-0.0737 0.599509,-0.0841 0.01703,-0.0105 0.03048,-0.46405 0.03048,-1.02713 l 0,-1.0083 -0.126657,-0.02 c -0.117116,-0.0185 -1.466783,-0.15481 -1.532804,-0.15481 -0.01612,0 -0.02932,0.5411 -0.02932,1.20245 l 0,1.20245 0.244873,-0.0227 c 0.134676,-0.0125 0.500933,-0.052 0.813902,-0.0879 z m -14.370807,-1.20736 0.0046,-0.4498 -0.07599,0.0225 c -0.221218,0.0656 -0.70879,0.27739 -0.883633,0.3839 -0.24692,0.15042 -0.340937,0.26844 -0.310488,0.38976 0.04565,0.1819 0.439232,0.4917 0.983024,0.7738 l 0.236428,0.12264 0.02074,-0.39651 c 0.01141,-0.21809 0.02282,-0.59893 0.02533,-0.84632 z m 8.759802,1.13934 c 0.09638,-0.13037 0.402798,-0.3372 0.592126,-0.39969 l 0.143499,-0.0473 0,-0.99097 0,-0.99096 -0.553961,0 -0.55396,0 -0.01931,0.37997 c -0.01061,0.20898 -0.02597,0.77054 -0.03411,1.24789 l -0.0148,0.86792 0.140524,0.0128 c 0.07729,0.007 0.159073,0.0154 0.181736,0.0187 0.02266,0.003 0.07586,-0.041 0.118212,-0.0983 z m -0.941117,-0.51223 c 0.03263,-0.85071 0.03965,-1.93455 0.01249,-1.92519 -0.01348,0.005 -0.250103,0.008 -0.525845,0.008 l -0.501347,0 -0.02389,1.16916 c -0.01312,0.64303 -0.01544,1.1776 -0.0051,1.18792 0.01644,0.0164 0.693727,0.0919 0.934312,0.10405 l 0.08837,0.004 z m 19.478635,0.14621 c 0.05445,-0.0821 0.099,-0.18165 0.099,-0.22114 0,-0.0744 -0.196269,-0.2847 -0.329309,-0.3529 l -0.07599,-0.0389 0,0.48036 0,0.48036 0.103655,-0.0992 c 0.05701,-0.0546 0.148207,-0.16641 0.202652,-0.24853 z m -11.04684,0.10957 c 1.004039,-0.22846 2.220163,-0.64392 2.919247,-0.99732 l 0.234115,-0.11835 -0.554978,-0.10609 c -0.935879,-0.17892 -2.382983,-0.40732 -3.147231,-0.49674 l -0.194206,-0.0227 0,0.95228 0,0.95228 0.109767,-0.0221 c 0.06037,-0.0122 0.345353,-0.0757 0.633286,-0.14123 z m -9.981561,-0.99249 c 0.01372,-0.61417 0.01955,-1.12074 0.01296,-1.12569 -0.01161,-0.009 -0.754897,0.035 -1.937166,0.11406 -1.05668,0.0706 -2.726397,0.27128 -2.795893,0.33598 -0.01448,0.0135 0.06151,0.0934 0.168875,0.17767 0.763542,0.59913 1.721361,1.03826 2.896641,1.328 0.498407,0.12288 1.339283,0.27958 1.524414,0.2841 l 0.105271,0.002 z M 47.097806,94.7902 c 0.02039,-3.39948 0.04657,-6.741112 0.05822,-7.425847 l 0.02114,-1.244975 -0.20623,0.113505 c -0.113429,0.06243 -0.258253,0.159097 -0.321837,0.214826 l -0.1156,0.101326 -0.0373,7.295457 c -0.0205,4.012501 -0.04585,7.541708 -0.0563,7.842678 l -0.01899,0.54722 0.196464,0.10119 c 0.108056,0.0557 0.242061,0.13219 0.297791,0.17006 l 0.101325,0.0688 0.02214,-0.80171 c 0.01217,-0.44094 0.03881,-3.5831 0.05918,-6.98258 z m -6.083979,7.1014 -0.0093,-0.51491 -0.641727,-0.0894 c -0.352953,-0.0492 -0.729127,-0.0994 -0.835938,-0.1116 l -0.19421,-0.0222 0,0.42159 c 0,0.37269 0.0069,0.42351 0.05911,0.43816 0.03251,0.009 0.273691,0.0636 0.535958,0.12111 0.26227,0.0575 0.596645,0.14126 0.743057,0.18614 0.146411,0.0449 0.285599,0.0826 0.309303,0.0838 0.03355,0.002 0.04103,-0.11189 0.03379,-0.51268 z m -27.806801,0.38052 c 0.05817,-0.0941 0.896052,-0.48857 1.545658,-0.72766 l 0.160429,-0.059 0,-0.2005 c 0,-0.11028 0.113421,-3.265776 0.252046,-7.012221 0.138625,-3.746449 0.256418,-6.939464 0.26176,-7.095589 l 0.0097,-0.283872 -0.34456,-0.09277 c -0.54743,-0.147397 -0.958231,-0.293326 -1.279214,-0.454418 -0.163853,-0.08224 -0.299992,-0.146197 -0.302529,-0.14214 -0.0024,0.0041 -0.08331,3.442324 -0.179495,7.640591 -0.09618,4.198266 -0.184113,7.819398 -0.195407,8.046958 -0.014,0.28213 -0.0091,0.41374 0.01532,0.41374 0.01971,0 0.04504,-0.0149 0.05628,-0.0331 z m 32.714743,-0.24557 c 0.0074,-0.0211 0.09455,-12.530686 0.09635,-13.828956 l 0.002,-1.458772 -0.227983,0.07752 c -0.125393,0.04263 -0.395171,0.120302 -0.599514,0.172597 -0.204339,0.05229 -0.376166,0.0984 -0.381842,0.102474 -0.01684,0.01209 -0.169952,14.519865 -0.153429,14.538275 0.01388,0.0155 1.177844,0.39383 1.236111,0.40183 0.01392,0.002 0.02665,-3.4e-4 0.02828,-0.005 z m -7.095769,-0.52647 0,-0.39982 -0.667059,-0.0572 c -0.686498,-0.0589 -1.854581,-0.13444 -2.702023,-0.17485 l -0.481298,-0.0229 0,0.21701 0,0.21701 0.599514,0.0768 c 0.619495,0.0793 2.639967,0.41037 2.997552,0.49115 0.111458,0.0252 0.214052,0.0473 0.227983,0.0492 0.01392,0.002 0.02533,-0.17645 0.02533,-0.39635 z m -18.673634,-0.006 c 0.106361,-0.0296 0.125022,-0.0504 0.143173,-0.16024 0.01149,-0.0695 0.02106,-0.1841 0.02126,-0.25478 l 3.71e-4,-0.12851 -0.160433,0.0103 -0.16043,0.0103 -0.0098,0.27864 c -0.0054,0.15325 0.0024,0.27856 0.01687,0.27846 0.01468,0 0.08173,-0.0155 0.148996,-0.0341 z m 23.977784,-0.0248 c 0.01053,-0.18635 0.155758,-14.248423 0.147245,-14.257917 -0.0065,-0.0073 -0.259206,0.02689 -0.561552,0.07591 -0.302346,0.04902 -0.876496,0.128265 -1.275887,0.176112 -0.399395,0.04785 -0.760071,0.09369 -0.801511,0.101888 l -0.07534,0.01488 -0.0091,6.661691 c -0.005,3.663929 -0.0016,6.672152 0.0078,6.684932 0.0093,0.0128 0.396862,0.10021 0.861269,0.19428 0.464412,0.0941 1.01917,0.21492 1.2328,0.26855 0.435529,0.10934 0.472258,0.11551 0.474285,0.0797 z m -22.560164,-0.22653 c 0.760422,-0.11015 1.762259,-0.20231 2.935304,-0.27002 1.199199,-0.0692 1.21591,-0.0714 1.21591,-0.16117 l 0,-0.071 -1.443893,0.0228 c -1.316238,0.0208 -2.084662,0.0481 -3.090436,0.10969 l -0.363086,0.0223 0,0.23574 c 0,0.22759 0.0028,0.23509 0.07599,0.21674 0.0418,-0.0105 0.34339,-0.0577 0.670206,-0.10507 z m -5.394254,-0.13588 c 0.783105,-0.2026 1.421956,-0.33076 2.266897,-0.45475 0.390105,-0.0572 0.785275,-0.11529 0.878156,-0.12898 l 0.168879,-0.0249 0.161399,-6.464173 c 0.08877,-3.555299 0.157167,-6.468184 0.151989,-6.473078 -0.0052,-0.0049 -0.366584,-0.04903 -0.803131,-0.09809 -0.85037,-0.09555 -2.134762,-0.281299 -2.684375,-0.388213 -0.185346,-0.03606 -0.344077,-0.05847 -0.352733,-0.04981 -0.01297,0.01296 -0.536576,13.70093 -0.541519,14.15648 -0.0016,0.14038 -9.6e-5,0.14216 0.08738,0.1089 0.04891,-0.0186 0.349091,-0.10112 0.667062,-0.18339 z m 18.259487,-0.0851 0,-0.20265 -0.548851,-3.4e-4 c -0.301867,0 -0.674239,-0.01 -0.827493,-0.0219 l -0.278645,-0.0217 0,0.13722 0,0.13723 0.261759,0.024 c 0.248041,0.0227 1.31388,0.13663 1.367898,0.14617 0.01392,0.002 0.02533,-0.0867 0.02533,-0.19817 z m -2.195395,-0.11822 0,-0.11821 -0.542751,0 -0.542755,0 0.01081,0.076 c 0.01037,0.073 0.0306,0.0774 0.517419,0.11282 0.278646,0.0203 0.51803,0.0393 0.531961,0.0422 0.01392,0.003 0.02533,-0.0478 0.02533,-0.11283 z m -5.189597,-0.0725 c 0.432466,-0.0365 0.289293,-0.0795 -0.265107,-0.0795 -0.442833,0 -0.523519,0.008 -0.523519,0.0507 0,0.0407 0.05198,0.0507 0.265107,0.0507 0.145809,0 0.381392,-0.01 0.523519,-0.0218 z m 1.879621,-0.007 c 0,-0.0289 -0.552425,-0.0727 -0.917186,-0.0727 -0.227356,0 -0.267667,0.0573 -0.05385,0.0766 0.293757,0.0264 0.97104,0.0237 0.97104,-0.004 z M 41.03276,99.124766 c 0.01233,-0.950452 0.02242,-3.931078 0.02242,-6.623615 l 0,-4.895519 -0.07599,0.01779 c -0.0418,0.0098 -0.425568,0.04351 -0.852824,0.07495 -0.427256,0.03144 -0.798244,0.06353 -0.824413,0.07131 -0.04074,0.01213 -0.04436,0.583485 -0.02521,3.973303 0.01229,2.177535 0.03231,5.071515 0.04447,6.431072 l 0.0221,2.471917 0.21967,0.0235 c 0.120821,0.0129 0.456592,0.0576 0.746164,0.0993 0.289573,0.0417 0.565809,0.0777 0.613855,0.0799 l 0.08736,0.004 z M 38.807359,97.66954 c -0.01273,-1.602212 -0.03271,-4.465946 -0.04446,-6.363846 -0.01173,-1.897895 -0.03175,-3.461109 -0.04444,-3.473799 -0.01269,-0.01269 -0.506665,0.002 -1.097697,0.03299 -0.591029,0.03084 -1.396485,0.06674 -1.789904,0.07978 -0.393416,0.01305 -0.721954,0.03116 -0.730084,0.04021 -0.01217,0.0136 -0.128752,11.187241 -0.126007,12.078167 l 7.97e-4,0.2741 0.498184,0.0228 c 0.823029,0.0376 2.122628,0.12118 2.626029,0.16889 0.260069,0.0247 0.530856,0.0469 0.601748,0.0493 l 0.128899,0.005 -0.02314,-2.91312 z m -18.509004,2.74733 c 0.01045,-0.0169 0.04194,-1.000996 0.07003,-2.186942 0.02808,-1.185951 0.09645,-4.015661 0.151909,-6.288251 0.05547,-2.272589 0.100843,-4.176246 0.100843,-4.230351 0,-0.09407 -0.0066,-0.09837 -0.151989,-0.09837 -0.148941,0 -0.151988,0.002 -0.152076,0.109771 -3.6e-5,0.06037 -0.0684,2.822765 -0.151901,6.138651 -0.0835,3.315886 -0.151853,6.154272 -0.151901,6.307532 l -8.8e-5,0.27864 0.133108,0 c 0.07321,0 0.141641,-0.0138 0.152068,-0.0307 z m 1.792003,-0.10552 c 0.352953,-0.0179 1.321878,-0.0427 2.153173,-0.055 l 1.511441,-0.0224 1.36e-4,-0.391355 c 6.8e-5,-0.215245 0.04579,-2.973792 0.101569,-6.130094 0.05578,-3.15631 0.09494,-5.745216 0.08703,-5.753126 -0.0079,-0.0079 -0.490585,-0.03535 -1.072606,-0.06098 -0.582025,-0.02561 -1.187414,-0.05504 -1.345315,-0.06535 -0.157897,-0.01029 -0.755858,-0.04997 -1.328796,-0.08813 -0.572941,-0.03814 -1.046595,-0.06445 -1.052567,-0.05843 -0.0095,0.0095 -0.221553,8.581033 -0.270245,10.920363 -0.0097,0.464411 -0.02613,1.05526 -0.03658,1.313002 l -0.01903,0.468622 0.315011,-0.0222 c 0.173255,-0.0122 0.603786,-0.0369 0.956739,-0.0549 z m 12.378107,-0.598408 c -3.03e-4,-0.329728 0.02425,-3.096715 0.05454,-6.148851 0.03028,-3.052141 0.04725,-5.557153 0.0377,-5.566703 -0.0095,-0.0095 -0.403983,-0.0065 -0.876524,0.0067 l -0.859171,0.02402 -0.02238,2.381807 c -0.01233,1.309998 -0.02238,4.065765 -0.02238,6.123923 l 0,3.742116 0.278645,0.0114 c 0.153254,0.006 0.533225,0.0145 0.844383,0.0183 l 0.565733,0.007 -3.99e-4,-0.599516 z m -5.538617,-5.564473 0,-6.13021 -0.419309,0 -0.419309,0 -0.01843,0.244869 c -0.01013,0.13468 -0.06449,2.737488 -0.120801,5.784015 -0.05631,3.046528 -0.109456,5.68693 -0.118097,5.867557 l -0.01572,0.32842 0.496715,0.0103 c 0.273197,0.006 0.523316,0.0137 0.555824,0.0178 0.0561,0.007 0.05911,-0.304118 0.05911,-6.122743 z m 3.324206,6.020441 c 0.0095,-0.0604 0.02234,-2.818969 0.02852,-6.130212 l 0.01125,-6.020439 -0.511568,0 -0.511563,0 -0.02194,1.984298 c -0.01209,1.091363 -0.03195,3.849957 -0.04419,6.13021 l -0.02222,4.145913 0.527217,0 0.527213,0 z m -4.93225,-0.337752 c 0.01644,-0.340985 0.212704,-10.218366 0.227656,-11.458259 l 0.0045,-0.371526 -0.536401,-0.02134 c -0.295017,-0.01173 -0.538845,-0.01935 -0.541837,-0.01687 -0.0059,0.0048 -0.215154,11.813135 -0.2145,12.104424 l 3.99e-4,0.17732 0.520117,0 0.520116,0 z m 4.985573,-14.075843 0,-1.857636 -0.178485,0 c -0.162656,0 -0.18381,0.009 -0.238578,0.101736 -0.07562,0.12801 -0.283537,0.236013 -0.454354,0.236013 l -0.131054,0 -0.02222,0.785275 c -0.01221,0.431903 -0.02222,1.191847 -0.0223,1.688766 l -7.6e-5,0.903487 0.523515,0 0.523519,0 z m 2.260359,1.80393 c 0.0081,-0.0081 0.02154,-0.835215 0.03,-1.838113 l 0.01536,-1.823453 -0.899533,0 -0.899538,0 -2.8e-5,1.849195 -2.8e-5,1.849196 0.869563,-0.01109 c 0.478262,-0.0061 0.876161,-0.01767 0.884223,-0.02573 z m -6.976429,-1.10309 c 0.01201,-0.617669 0.03139,-1.453607 0.04307,-1.857641 l 0.02122,-0.734612 -0.55791,0 -0.557911,0 -0.0209,1.511442 c -0.01149,0.831294 -0.02916,1.659161 -0.03925,1.839701 l -0.01831,0.328255 0.41522,0.01065 c 0.228374,0.0059 0.477703,0.01392 0.554073,0.01795 l 0.138848,0.0073 z m 1.338541,-0.734612 0,-1.857641 -0.383757,0 -0.383758,0 -0.02134,0.920377 c -0.01173,0.506206 -0.03112,1.342144 -0.04309,1.857637 l -0.02178,0.937263 0.426848,0 0.426849,0 z m 7.312345,1.787981 c 1.160244,-0.04761 2.447667,-0.120697 2.467011,-0.140041 0.0085,-0.0085 0.01548,-0.753078 0.01548,-1.654594 l 0,-1.63912 -0.346195,-0.02194 c -0.550666,-0.03494 -1.665804,-0.08338 -2.499368,-0.108582 l -0.768388,-0.02322 0,1.655001 c 0,0.910252 -0.0097,1.725518 -0.02146,1.811705 l -0.02146,0.156704 0.148135,0 c 0.08148,0 0.543306,-0.01616 1.02629,-0.03594 z m -10.271864,-0.54674 c 0.01093,-0.301868 0.02916,-1.122606 0.04054,-1.823865 l 0.02062,-1.275017 -0.855992,3.99e-4 c -0.934467,3.99e-4 -3.051549,0.05136 -3.595393,0.08631 l -0.341361,0.02194 -0.0213,0.494482 c -0.01173,0.271964 -0.03139,1.006316 -0.04376,1.631899 l -0.02246,1.137418 0.114917,0.01959 c 0.145451,0.02481 1.940269,0.140201 2.918263,0.187616 0.408682,0.01983 0.819051,0.04047 0.911932,0.04591 0.09288,0.0054 0.323049,0.01265 0.51148,0.016 l 0.3426,0.0061 0.01991,-0.54885 z m 14.206683,0.312063 c 0.436546,-0.03686 0.812716,-0.06705 0.835938,-0.0671 0.03311,0 0.04222,-0.315973 0.04222,-1.466635 l 0,-1.466543 -0.09288,-0.01839 c -0.05109,-0.01013 -0.381659,-0.04171 -0.734612,-0.0702 -0.352953,-0.02848 -0.721524,-0.05956 -0.819052,-0.06903 l -0.17732,-0.01723 0,1.621512 0,1.621507 0.076,-3.99e-4 c 0.0418,-3.39e-4 0.433167,-0.0306 0.869714,-0.06746 z M 20.634849,87.064109 c 0.0098,-0.07895 0.02625,-0.63751 0.03654,-1.241241 0.01029,-0.603734 0.02792,-1.261087 0.03921,-1.460782 l 0.02054,-0.363082 -0.151989,0 -0.151988,0 -0.02078,0.363082 c -0.01141,0.199695 -0.0294,0.879847 -0.03993,1.511445 -0.01053,0.631595 -0.02597,1.181495 -0.03427,1.221993 -0.01544,0.07511 0.02553,0.09599 0.210885,0.107529 0.06265,0.004 0.07665,-0.01727 0.09178,-0.138944 z m -0.776954,-1.383671 c 0.01241,-0.692582 0.03172,-1.341458 0.04283,-1.441942 l 0.02027,-0.182693 -0.346032,0.02266 c -0.909658,0.05961 -2.655434,0.29935 -3.386818,0.465086 l -0.160434,0.03634 -3.99e-4,0.224612 c -3.07e-4,0.123542 -0.01532,0.566037 -0.03331,0.983331 -0.01799,0.417291 -0.02154,0.769075 -0.0079,0.781745 0.0682,0.06315 1.901455,0.346322 3.11531,0.481209 l 0.69239,0.07694 0.02082,-0.09403 c 0.01145,-0.05172 0.031,-0.6607 0.04342,-1.353286 z m 22.64961,1.354658 c 0.287933,-0.03606 0.801443,-0.110756 1.141136,-0.166027 0.339688,-0.05527 0.624669,-0.100496 0.633286,-0.100496 0.0086,0 0.01568,-0.46254 0.01568,-1.027866 0,-0.949862 -0.0045,-1.029175 -0.0591,-1.04506 -0.227289,-0.06608 -2.629101,-0.395222 -2.659829,-0.364494 -0.0093,0.0093 -0.01687,0.646571 -0.01687,1.416224 l 0,1.399357 0.211097,-0.02306 c 0.116102,-0.01269 0.446679,-0.05255 0.734612,-0.08858 z m 2.752682,-0.500107 c 0.204343,-0.05393 0.456613,-0.130056 0.560607,-0.16917 l 0.189073,-0.07111 0.02186,-0.379466 c 0.031,-0.537708 0.02737,-0.828226 -0.01057,-0.851679 -0.05996,-0.03706 -1.158489,-0.256111 -1.179436,-0.235187 -0.01133,0.01133 -0.02589,0.422101 -0.03235,0.912841 -0.0096,0.731497 -0.0036,0.892218 0.03379,0.892038 0.02501,0 0.212688,-0.04434 0.417027,-0.09827 z M 15.466635,86.118401 c 0.01081,-0.190409 0.02916,-0.58759 0.04079,-0.882624 l 0.02118,-0.536424 -0.130423,0.02441 c -0.282727,0.05295 -1.190048,0.330601 -1.406937,0.430543 -0.239197,0.110225 -0.429134,0.286536 -0.429134,0.398346 0,0.178365 0.360029,0.423298 0.911932,0.620401 0.221177,0.07899 0.889417,0.282116 0.950898,0.289042 0.01217,0.0012 0.03092,-0.153298 0.0417,-0.343706 z m 31.625862,-0.473938 c 0.156944,-0.14415 0.07773,-0.240904 -0.313476,-0.382904 l -0.218485,-0.07931 0,0.404382 0,0.404381 0.227983,-0.138373 c 0.125389,-0.07611 0.262179,-0.169789 0.303978,-0.208177 z m 0.07709,-1.079726 c 7.98e-4,-0.208982 0.02218,-3.1081 0.048,-6.442481 0.02581,-3.33438 0.0443,-6.06489 0.04112,-6.067802 -0.0032,-0.0028 -0.144526,0.03371 -0.314107,0.08138 l -0.308326,0.08667 -0.02453,3.870182 c -0.01348,2.128595 -0.02673,4.947335 -0.02944,6.263856 l -0.0049,2.393682 0.270204,0.09429 c 0.14861,0.05186 0.281598,0.09562 0.295533,0.09725 0.01392,0.0016 0.02581,-0.168029 0.02641,-0.377016 z m -32.594225,-0.05553 c 0.269355,-0.07568 0.596131,-0.165939 0.726167,-0.200562 l 0.236428,-0.06295 0.0091,-0.182455 c 0.01221,-0.244542 0.408993,-11.022976 0.417598,-11.344019 l 0.0067,-0.252158 -0.52071,-0.07625 c -0.586848,-0.08594 -1.094578,-0.188645 -1.395412,-0.282276 -0.111766,-0.03479 -0.205664,-0.06006 -0.208659,-0.05617 -0.0032,0.004 -0.06793,2.742877 -0.14429,6.086628 -0.07636,3.343751 -0.146543,6.234253 -0.155962,6.423333 l -0.01711,0.343785 0.27818,-0.129649 c 0.152994,-0.0713 0.498558,-0.191569 0.767917,-0.267256 z M 46.065644,81.2041 c 0.01217,-1.871571 0.03207,-4.632539 0.0442,-6.135476 l 0.02206,-2.732616 -0.131875,0.02266 c -0.07253,0.01245 -0.336617,0.05365 -0.586852,0.09153 -0.25023,0.03786 -0.456795,0.07184 -0.459025,0.07549 -0.0152,0.02481 -0.120131,11.818349 -0.105291,11.833188 0.02242,0.02242 1.022516,0.240358 1.123854,0.24491 l 0.07079,0.0032 0.02214,-3.402859 z m -1.735149,2.617584 c -3.99e-4,-0.246138 0.02485,-2.867962 0.05625,-5.826272 0.03144,-2.958314 0.04848,-5.387404 0.0379,-5.39798 -0.01057,-0.01057 -0.252477,0.004 -0.537554,0.03199 -0.285076,0.02816 -0.913491,0.077 -1.396476,0.10853 -0.482989,0.03151 -0.881782,0.06005 -0.88621,0.06336 -0.01129,0.0085 -0.01249,11.070217 -0.0012,11.081435 0.0051,0.005 0.323158,0.04929 0.706835,0.09832 0.383682,0.04904 0.961239,0.132222 1.283463,0.184852 0.322224,0.05264 0.620058,0.09741 0.661857,0.09949 0.07522,0.0036 0.07598,-7.98e-4 0.07512,-0.443723 z m -27.517723,0.17756 c 0.693256,-0.118835 1.675829,-0.245779 2.490895,-0.321813 0.324957,-0.03032 0.594436,-0.05872 0.59884,-0.06313 0.01404,-0.01404 0.280552,-10.805174 0.267197,-10.818522 -0.0071,-0.0071 -0.406117,-0.03514 -0.886828,-0.06249 -0.877869,-0.0499 -1.991818,-0.130738 -2.495236,-0.181085 -0.148609,-0.01488 -0.277285,-0.02086 -0.285942,-0.01336 -0.0138,0.01197 -0.433806,10.953361 -0.438437,11.42159 -0.0016,0.176382 3.55e-4,0.180443 0.08245,0.159839 0.04633,-0.01165 0.34651,-0.0661 0.667058,-0.12104 z m 24.253769,-1.79588 c 0.01233,-0.894719 0.02242,-3.373957 0.02242,-5.509418 l 0,-3.882657 -0.379972,0.0205 c -0.208986,0.01129 -0.644216,0.03032 -0.967178,0.04234 l -0.587211,0.02186 0.02162,4.124514 c 0.01189,2.268485 0.03112,4.695816 0.04272,5.394078 l 0.0211,1.269564 0.797804,0.06784 c 0.438789,0.0373 0.844714,0.07017 0.902055,0.07301 l 0.104258,0.0051 z m -2.362355,0.948102 c -0.002,-0.26762 -0.01528,-2.680981 -0.02952,-5.363018 l -0.02589,-4.876435 -1.693034,0.02477 c -0.931168,0.0136 -1.700375,0.03179 -1.709343,0.04036 -0.02733,0.02617 -0.114514,10.480121 -0.08761,10.507029 0.0138,0.0138 0.430407,0.03678 0.925782,0.0511 0.495372,0.01428 1.273051,0.04618 1.728171,0.07086 0.455125,0.02465 0.842696,0.04196 0.861269,0.03838 0.02086,-0.004 0.03239,-0.192595 0.03016,-0.493054 z m -17.997372,0.401589 c 0.0069,-0.0069 0.02174,-0.27036 0.03295,-0.585463 0.02808,-0.789356 0.252907,-9.587318 0.252907,-9.897471 l 0,-0.25073 -0.151988,0 c -0.143277,0 -0.151989,0.0053 -0.152029,0.09288 -1.04e-4,0.217731 -0.234394,9.504865 -0.25404,10.06984 l -0.02158,0.621215 0.140627,-0.01887 c 0.07735,-0.01037 0.146277,-0.02449 0.153182,-0.0314 z m 3.435391,-0.08286 c 1.035633,-0.01193 1.884189,-0.02322 1.885681,-0.02509 0.01197,-0.01496 0.188386,-10.479603 0.177005,-10.499054 -0.0081,-0.01392 -0.374902,-0.02553 -0.814995,-0.02581 -0.671861,-3.99e-4 -2.203528,-0.03231 -3.552853,-0.07403 l -0.320863,-0.0099 -0.05651,2.144728 c -0.03108,1.179603 -0.08773,3.406237 -0.125884,4.948077 -0.03814,1.541843 -0.07787,2.98416 -0.08826,3.205158 l -0.01891,0.401808 0.516303,-0.02206 c 0.283968,-0.01213 1.363642,-0.03183 2.399275,-0.04378 z m 10.474754,-0.121371 c 0.01608,-0.135657 0.091,-8.300385 0.08927,-9.727275 l -7.98e-4,-0.667063 -0.909937,0 c -0.50047,0 -0.917389,0.01205 -0.926489,0.02677 -0.0091,0.01472 -0.01983,1.999992 -0.02386,4.411697 l -0.0073,4.384921 0.536939,0.227732 c 0.756205,0.320736 0.946566,0.51126 0.754625,0.755272 -0.109471,0.139175 -0.35742,0.199652 -0.85941,0.209613 l -0.43908,0.0087 -0.0099,0.238243 -0.0099,0.238244 0.263212,0.01153 c 0.144764,0.0063 0.547255,0.0146 0.894423,0.01835 l 0.631216,0.0068 z m -6.957337,-0.371527 c 0.0227,-0.539376 0.190963,-9.093107 0.190022,-9.659726 l -7.98e-4,-0.363085 -0.557292,0 c -0.306511,0 -0.557523,0.004 -0.557807,0.0085 -0.0093,0.153939 -0.167706,9.484397 -0.167973,9.896154 l -3.91e-4,0.59951 0.536895,0 0.536891,0 z m 1.283797,0.371527 c 0.0091,-0.06037 0.02521,-0.246557 0.03566,-0.413744 0.06097,-0.973649 0.341117,-1.771087 0.730539,-2.079517 l 0.13215,-0.104668 0,-3.898203 0,-3.898206 -0.726167,0 c -0.399395,0 -0.727961,0.004 -0.730156,0.0085 -0.01229,0.02601 -0.219681,10.449301 -0.20834,10.470332 0.0075,0.01392 0.179263,0.02533 0.381667,0.02533 l 0.368004,0 z m 3.363958,-0.179087 0,-0.288851 -0.176666,0.01021 c -0.154865,0.0089 -0.180399,0.02086 -0.206916,0.09668 -0.02086,0.05963 -0.01292,0.146101 0.02561,0.278646 l 0.05587,0.19218 0.151043,0 0.151047,0 z m 0.01141,-2.8071 c 0.01229,-0.643921 0.02234,-2.574177 0.02234,-4.289455 l 0,-3.118696 -0.607955,0 -0.607954,0 1.03e-4,0.109771 c 3.03e-4,0.373441 0.137508,8.043233 0.143963,8.04711 0.05183,0.03116 0.963329,0.41676 0.990395,0.419002 0.02545,0.002 0.04363,-0.357225 0.0591,-1.167732 z m 1.421649,-28.663552 c 0.138198,-0.181186 0.190118,-0.380965 0.236727,-0.910835 0.02417,-0.274677 0.04971,-0.504435 0.05678,-0.510578 0.0071,-0.0061 0.18764,-0.06036 0.40127,-0.120478 0.874481,-0.24609 1.712278,-0.590969 3.170332,-1.305069 l 1.059381,-0.518839 -0.210339,-0.237254 c -0.115687,-0.130491 -0.224002,-0.245695 -0.2407,-0.256015 -0.01671,-0.01033 -0.117586,0.03371 -0.224198,0.09788 -0.345221,0.207725 -1.061523,0.583145 -1.494188,0.783108 -1.377684,0.636721 -2.679425,1.020471 -4.137467,1.219707 -0.550797,0.07527 -2.142459,0.08682 -2.685135,0.01947 -2.166237,-0.268769 -4.087219,-0.988194 -6.123863,-2.293434 -0.222745,-0.142757 -0.411008,-0.242439 -0.426242,-0.225693 -0.13097,0.143951 -0.408758,0.565083 -0.385904,0.585041 0.05294,0.04623 1.154739,0.675516 1.659517,0.947823 0.846585,0.456692 1.805494,0.837174 2.681248,1.063893 l 0.360097,0.09322 -0.01779,0.375656 c -0.01372,0.289947 -0.0047,0.425744 0.03961,0.595193 0.06578,0.251691 0.204969,0.527185 0.281127,0.556406 0.02952,0.01133 0.126801,-0.02976 0.225422,-0.09525 0.245707,-0.163138 0.422505,-0.24895 0.822451,-0.399176 0.192491,-0.0723 0.424112,-0.169022 0.514707,-0.21493 0.0906,-0.04591 0.170873,-0.08347 0.178389,-0.08347 0.0075,0 0.03279,0.144389 0.05613,0.320868 0.02338,0.176474 0.05446,0.320863 0.06912,0.320863 0.01468,0 0.103177,-0.03842 0.1967,-0.08541 0.280496,-0.140882 0.649322,-0.218564 1.037719,-0.218564 0.475543,0 0.795625,0.0725 1.284326,0.290924 0.0223,0.01 0.06998,-0.07417 0.116106,-0.204821 0.06841,-0.193764 0.08706,-0.219087 0.147935,-0.200749 0.153744,0.04631 0.460251,0.230149 0.746752,0.447884 0.423122,0.32157 0.472593,0.334886 0.603981,0.162628 z m 8.982662,-21.360534 c 0.210148,-0.709739 2.536755,-9.11368 2.592449,-9.36419 0.112411,-0.505619 0.11208,-1.091219 -7.98e-4,-1.342283 C 45.164949,19.29878 44.890516,19.123773 44.370383,19.029848 43.237178,18.825213 35.415278,17.210796 35.127565,17.122155 34.390548,16.895089 33.973285,16.535496 33.797158,15.975626 33.75918,15.85488 33.582877,14.958146 33.405386,13.982885 33.151569,12.5882 33.075495,12.097932 33.049018,11.686168 32.904697,9.4417145 32.562184,8.3702866 31.879651,8.0282426 31.577856,7.8770011 31.398449,7.8526754 30.584793,7.8526754 c -0.689629,0 -0.781864,0.0069 -0.99683,0.074541 -0.538866,0.1695651 -0.836692,0.5139252 -1.074771,1.2426937 -0.198906,0.6088523 -0.365962,1.6038135 -0.445175,2.6513575 -0.0209,0.27642 -0.651988,3.827366 -0.729323,4.103695 -0.157693,0.563472 -0.567707,0.937865 -1.289574,1.177538 -0.2941,0.09765 -8.068021,1.7066 -9.310104,1.926892 -0.530983,0.09417 -0.847323,0.314652 -0.971822,0.677331 -0.08141,0.237162 -0.07283,0.778461 0.01927,1.216978 0.06659,0.316998 2.586005,9.381404 2.625104,9.444672 0.01017,0.01644 5.34008,0.02928 12.156038,0.02928 11.53076,0 12.138815,-0.0028 12.155442,-0.05911 z"
       id="path5068"
       inkscape:connector-curvature="0"
       inkscape:export-xdpi="300"
       inkscape:export-ydpi="300" />
  </g>
</svg>
